<svg xmlns="http://www.w3.org/2000/svg" xmlns:xlink="http://www.w3.org/1999/xlink" width="500" zoomAndPan="magnify" viewBox="0 0 375 122.249994" height="163" preserveAspectRatio="xMidYMid meet" version="1.0"><defs><g/><clipPath id="ff67d06de8"><path d="M 1.144531 0 L 117.429688 0 L 117.429688 121.503906 L 1.144531 121.503906 Z M 1.144531 0 " clip-rule="nonzero"/></clipPath><clipPath id="636f90ffe4"><path d="M 67.945312 56.609375 L 16.039062 56.609375 C 14.027344 56.609375 12.570312 54.695312 13.113281 52.765625 L 27.363281 2.210938 C 27.730469 0.90625 28.925781 0.00390625 30.289062 0.00390625 L 82.191406 0.00390625 C 84.207031 0.00390625 85.664062 1.917969 85.121094 3.847656 L 70.871094 54.402344 C 70.5 55.707031 69.304688 56.609375 67.945312 56.609375 Z M 34.230469 94.769531 L 41.566406 68.738281 C 42.113281 66.808594 40.65625 64.894531 38.640625 64.894531 L 11.960938 64.894531 C 10.597656 64.894531 9.402344 65.796875 9.035156 67.105469 L 1.699219 93.132812 C 1.152344 95.0625 2.609375 96.976562 4.625 96.976562 L 31.304688 96.976562 C 32.667969 96.976562 33.863281 96.074219 34.230469 94.769531 Z M 47.734375 67.105469 L 33.484375 117.65625 C 32.9375 119.585938 34.394531 121.5 36.410156 121.5 L 88.3125 121.5 C 89.675781 121.5 90.871094 120.597656 91.238281 119.292969 L 105.488281 68.738281 C 106.03125 66.808594 104.574219 64.894531 102.5625 64.894531 L 50.660156 64.894531 C 49.296875 64.894531 48.101562 65.796875 47.734375 67.105469 Z M 84.371094 26.738281 L 77.035156 52.765625 C 76.492188 54.695312 77.945312 56.609375 79.960938 56.609375 L 106.640625 56.609375 C 108.003906 56.609375 109.199219 55.707031 109.566406 54.402344 L 116.90625 28.371094 C 117.449219 26.441406 115.992188 24.527344 113.980469 24.527344 L 87.296875 24.527344 C 85.933594 24.527344 84.738281 25.429688 84.371094 26.738281 Z M 84.371094 26.738281 " clip-rule="nonzero"/></clipPath><linearGradient x1="114.296445" gradientTransform="matrix(0.244094, 0, 0, 0.242992, 1.582671, 0.00435031)" y1="-47.633963" x2="358.610871" gradientUnits="userSpaceOnUse" y2="547.607269" id="c489d04680"><stop stop-opacity="1" stop-color="rgb(63.899231%, 33.699036%, 74.499512%)" offset="0"/><stop stop-opacity="1" stop-color="rgb(63.899231%, 33.699036%, 74.499512%)" offset="0.0625"/><stop stop-opacity="1" stop-color="rgb(63.847351%, 33.668518%, 74.475098%)" offset="0.09375"/><stop stop-opacity="1" stop-color="rgb(63.658142%, 33.555603%, 74.385071%)" offset="0.101562"/><stop stop-opacity="1" stop-color="rgb(63.380432%, 33.389282%, 74.252319%)" offset="0.109375"/><stop stop-opacity="1" stop-color="rgb(63.102722%, 33.224487%, 74.121094%)" offset="0.117188"/><stop stop-opacity="1" stop-color="rgb(62.826538%, 33.058167%, 73.989868%)" offset="0.125"/><stop stop-opacity="1" stop-color="rgb(62.548828%, 32.893372%, 73.857117%)" offset="0.132812"/><stop stop-opacity="1" stop-color="rgb(62.271118%, 32.727051%, 73.725891%)" offset="0.140625"/><stop stop-opacity="1" stop-color="rgb(61.994934%, 32.562256%, 73.59314%)" offset="0.148438"/><stop stop-opacity="1" stop-color="rgb(61.717224%, 32.395935%, 73.461914%)" offset="0.15625"/><stop stop-opacity="1" stop-color="rgb(61.439514%, 32.23114%, 73.330688%)" offset="0.164063"/><stop stop-opacity="1" stop-color="rgb(61.16333%, 32.066345%, 73.197937%)" offset="0.171875"/><stop stop-opacity="1" stop-color="rgb(60.88562%, 31.900024%, 73.066711%)" offset="0.179688"/><stop stop-opacity="1" stop-color="rgb(60.60791%, 31.735229%, 72.935486%)" offset="0.1875"/><stop stop-opacity="1" stop-color="rgb(60.331726%, 31.568909%, 72.802734%)" offset="0.195313"/><stop stop-opacity="1" stop-color="rgb(60.054016%, 31.404114%, 72.671509%)" offset="0.203125"/><stop stop-opacity="1" stop-color="rgb(59.776306%, 31.237793%, 72.540283%)" offset="0.210938"/><stop stop-opacity="1" stop-color="rgb(59.500122%, 31.072998%, 72.407532%)" offset="0.21875"/><stop stop-opacity="1" stop-color="rgb(59.222412%, 30.906677%, 72.276306%)" offset="0.226562"/><stop stop-opacity="1" stop-color="rgb(58.944702%, 30.741882%, 72.145081%)" offset="0.234375"/><stop stop-opacity="1" stop-color="rgb(58.668518%, 30.577087%, 72.012329%)" offset="0.242188"/><stop stop-opacity="1" stop-color="rgb(58.390808%, 30.410767%, 71.881104%)" offset="0.25"/><stop stop-opacity="1" stop-color="rgb(58.113098%, 30.245972%, 71.749878%)" offset="0.257812"/><stop stop-opacity="1" stop-color="rgb(57.836914%, 30.079651%, 71.617126%)" offset="0.265625"/><stop stop-opacity="1" stop-color="rgb(57.559204%, 29.914856%, 71.485901%)" offset="0.273438"/><stop stop-opacity="1" stop-color="rgb(57.281494%, 29.748535%, 71.354675%)" offset="0.281113"/><stop stop-opacity="1" stop-color="rgb(57.144165%, 29.666138%, 71.289062%)" offset="0.28125"/><stop stop-opacity="1" stop-color="rgb(57.00531%, 29.58374%, 71.221924%)" offset="0.289062"/><stop stop-opacity="1" stop-color="rgb(56.7276%, 29.417419%, 71.090698%)" offset="0.296875"/><stop stop-opacity="1" stop-color="rgb(56.44989%, 29.252625%, 70.959473%)" offset="0.304688"/><stop stop-opacity="1" stop-color="rgb(56.173706%, 29.086304%, 70.826721%)" offset="0.3125"/><stop stop-opacity="1" stop-color="rgb(55.895996%, 28.921509%, 70.695496%)" offset="0.320313"/><stop stop-opacity="1" stop-color="rgb(55.618286%, 28.756714%, 70.56427%)" offset="0.328125"/><stop stop-opacity="1" stop-color="rgb(55.342102%, 28.590393%, 70.431519%)" offset="0.335938"/><stop stop-opacity="1" stop-color="rgb(55.064392%, 28.425598%, 70.300293%)" offset="0.34375"/><stop stop-opacity="1" stop-color="rgb(54.786682%, 28.259277%, 70.169067%)" offset="0.351563"/><stop stop-opacity="1" stop-color="rgb(54.510498%, 28.094482%, 70.036316%)" offset="0.359375"/><stop stop-opacity="1" stop-color="rgb(54.232788%, 27.928162%, 69.90509%)" offset="0.367188"/><stop stop-opacity="1" stop-color="rgb(53.955078%, 27.763367%, 69.773865%)" offset="0.375"/><stop stop-opacity="1" stop-color="rgb(53.678894%, 27.597046%, 69.641113%)" offset="0.382813"/><stop stop-opacity="1" stop-color="rgb(53.401184%, 27.432251%, 69.509888%)" offset="0.390625"/><stop stop-opacity="1" stop-color="rgb(53.123474%, 27.267456%, 69.377136%)" offset="0.398438"/><stop stop-opacity="1" stop-color="rgb(52.84729%, 27.101135%, 69.245911%)" offset="0.40625"/><stop stop-opacity="1" stop-color="rgb(52.56958%, 26.93634%, 69.114685%)" offset="0.414062"/><stop stop-opacity="1" stop-color="rgb(52.29187%, 26.77002%, 68.981934%)" offset="0.421875"/><stop stop-opacity="1" stop-color="rgb(52.015686%, 26.605225%, 68.850708%)" offset="0.429688"/><stop stop-opacity="1" stop-color="rgb(51.737976%, 26.438904%, 68.719482%)" offset="0.4375"/><stop stop-opacity="1" stop-color="rgb(51.460266%, 26.274109%, 68.586731%)" offset="0.445313"/><stop stop-opacity="1" stop-color="rgb(51.184082%, 26.107788%, 68.455505%)" offset="0.453125"/><stop stop-opacity="1" stop-color="rgb(50.906372%, 25.942993%, 68.32428%)" offset="0.460938"/><stop stop-opacity="1" stop-color="rgb(50.628662%, 25.778198%, 68.191528%)" offset="0.46875"/><stop stop-opacity="1" stop-color="rgb(50.352478%, 25.611877%, 68.060303%)" offset="0.476562"/><stop stop-opacity="1" stop-color="rgb(50.074768%, 25.447083%, 67.929077%)" offset="0.484375"/><stop stop-opacity="1" stop-color="rgb(49.797058%, 25.280762%, 67.796326%)" offset="0.492187"/><stop stop-opacity="1" stop-color="rgb(49.520874%, 25.115967%, 67.6651%)" offset="0.5"/><stop stop-opacity="1" stop-color="rgb(49.243164%, 24.949646%, 67.533875%)" offset="0.507813"/><stop stop-opacity="1" stop-color="rgb(48.965454%, 24.784851%, 67.401123%)" offset="0.515625"/><stop stop-opacity="1" stop-color="rgb(48.68927%, 24.61853%, 67.269897%)" offset="0.523438"/><stop stop-opacity="1" stop-color="rgb(48.41156%, 24.453735%, 67.138672%)" offset="0.53125"/><stop stop-opacity="1" stop-color="rgb(48.13385%, 24.28894%, 67.00592%)" offset="0.539062"/><stop stop-opacity="1" stop-color="rgb(47.857666%, 24.12262%, 66.874695%)" offset="0.546875"/><stop stop-opacity="1" stop-color="rgb(47.579956%, 23.957825%, 66.743469%)" offset="0.554688"/><stop stop-opacity="1" stop-color="rgb(47.302246%, 23.791504%, 66.610718%)" offset="0.5625"/><stop stop-opacity="1" stop-color="rgb(47.026062%, 23.626709%, 66.479492%)" offset="0.570312"/><stop stop-opacity="1" stop-color="rgb(46.748352%, 23.460388%, 66.348267%)" offset="0.578125"/><stop stop-opacity="1" stop-color="rgb(46.470642%, 23.295593%, 66.215515%)" offset="0.585938"/><stop stop-opacity="1" stop-color="rgb(46.194458%, 23.129272%, 66.08429%)" offset="0.59375"/><stop stop-opacity="1" stop-color="rgb(45.916748%, 22.964478%, 65.953064%)" offset="0.601562"/><stop stop-opacity="1" stop-color="rgb(45.639038%, 22.798157%, 65.820312%)" offset="0.609375"/><stop stop-opacity="1" stop-color="rgb(45.362854%, 22.633362%, 65.689087%)" offset="0.617188"/><stop stop-opacity="1" stop-color="rgb(45.085144%, 22.468567%, 65.557861%)" offset="0.625"/><stop stop-opacity="1" stop-color="rgb(44.807434%, 22.302246%, 65.42511%)" offset="0.632812"/><stop stop-opacity="1" stop-color="rgb(44.53125%, 22.137451%, 65.293884%)" offset="0.640625"/><stop stop-opacity="1" stop-color="rgb(44.25354%, 21.97113%, 65.162659%)" offset="0.648438"/><stop stop-opacity="1" stop-color="rgb(43.97583%, 21.806335%, 65.029907%)" offset="0.65625"/><stop stop-opacity="1" stop-color="rgb(43.699646%, 21.640015%, 64.898682%)" offset="0.664062"/><stop stop-opacity="1" stop-color="rgb(43.421936%, 21.47522%, 64.76593%)" offset="0.671875"/><stop stop-opacity="1" stop-color="rgb(43.144226%, 21.308899%, 64.634705%)" offset="0.679688"/><stop stop-opacity="1" stop-color="rgb(42.868042%, 21.144104%, 64.503479%)" offset="0.6875"/><stop stop-opacity="1" stop-color="rgb(42.590332%, 20.979309%, 64.370728%)" offset="0.695312"/><stop stop-opacity="1" stop-color="rgb(42.312622%, 20.812988%, 64.239502%)" offset="0.703125"/><stop stop-opacity="1" stop-color="rgb(42.036438%, 20.648193%, 64.108276%)" offset="0.710938"/><stop stop-opacity="1" stop-color="rgb(41.758728%, 20.481873%, 63.975525%)" offset="0.71875"/><stop stop-opacity="1" stop-color="rgb(41.481018%, 20.317078%, 63.844299%)" offset="0.718887"/><stop stop-opacity="1" stop-color="rgb(41.343689%, 20.23468%, 63.778687%)" offset="0.726562"/><stop stop-opacity="1" stop-color="rgb(41.204834%, 20.150757%, 63.713074%)" offset="0.734375"/><stop stop-opacity="1" stop-color="rgb(40.927124%, 19.985962%, 63.580322%)" offset="0.742188"/><stop stop-opacity="1" stop-color="rgb(40.649414%, 19.819641%, 63.449097%)" offset="0.75"/><stop stop-opacity="1" stop-color="rgb(40.37323%, 19.654846%, 63.317871%)" offset="0.757812"/><stop stop-opacity="1" stop-color="rgb(40.09552%, 19.490051%, 63.18512%)" offset="0.765625"/><stop stop-opacity="1" stop-color="rgb(39.81781%, 19.32373%, 63.053894%)" offset="0.773438"/><stop stop-opacity="1" stop-color="rgb(39.541626%, 19.158936%, 62.922668%)" offset="0.78125"/><stop stop-opacity="1" stop-color="rgb(39.263916%, 18.992615%, 62.789917%)" offset="0.789062"/><stop stop-opacity="1" stop-color="rgb(38.986206%, 18.82782%, 62.658691%)" offset="0.796875"/><stop stop-opacity="1" stop-color="rgb(38.710022%, 18.661499%, 62.527466%)" offset="0.804688"/><stop stop-opacity="1" stop-color="rgb(38.432312%, 18.496704%, 62.394714%)" offset="0.8125"/><stop stop-opacity="1" stop-color="rgb(38.154602%, 18.330383%, 62.263489%)" offset="0.820313"/><stop stop-opacity="1" stop-color="rgb(37.878418%, 18.165588%, 62.132263%)" offset="0.828125"/><stop stop-opacity="1" stop-color="rgb(37.669373%, 18.040466%, 62.033081%)" offset="0.84375"/><stop stop-opacity="1" stop-color="rgb(37.599182%, 17.999268%, 61.999512%)" offset="0.875"/><stop stop-opacity="1" stop-color="rgb(37.599182%, 17.999268%, 61.999512%)" offset="1"/></linearGradient></defs><g clip-path="url(#ff67d06de8)"><g clip-path="url(#636f90ffe4)"><path fill="url(#c489d04680)" d="M 1.152344 0.00390625 L 1.152344 121.5 L 117.429688 121.5 L 117.429688 0.00390625 Z M 1.152344 0.00390625 " fill-rule="nonzero"/></g></g><g fill="#282327" fill-opacity="1"><g transform="translate(135.610179, 86.513451)"><g><path d="M 8.34375 -8.265625 L 8.34375 0 L 7.15625 0 L 7.15625 -3.6875 L 2.421875 -3.6875 L 2.421875 0 L 1.234375 0 L 1.234375 -8.265625 L 2.421875 -8.265625 L 2.421875 -4.703125 L 7.15625 -4.703125 L 7.15625 -8.265625 Z M 8.34375 -8.265625 "/></g></g></g><g fill="#282327" fill-opacity="1"><g transform="translate(145.191862, 86.513451)"><g><path d="M 7.234375 -1.03125 L 7.234375 0 L 1.234375 0 L 1.234375 -8.265625 L 7.0625 -8.265625 L 7.0625 -7.234375 L 2.421875 -7.234375 L 2.421875 -4.6875 L 6.5625 -4.6875 L 6.5625 -3.6875 L 2.421875 -3.6875 L 2.421875 -1.03125 Z M 4.28125 2.3125 C 4.125 2.3125 3.984375 2.253906 3.859375 2.140625 C 3.742188 2.035156 3.6875 1.894531 3.6875 1.71875 C 3.6875 1.550781 3.742188 1.40625 3.859375 1.28125 C 3.984375 1.164062 4.125 1.109375 4.28125 1.109375 C 4.445312 1.109375 4.585938 1.164062 4.703125 1.28125 C 4.828125 1.40625 4.890625 1.550781 4.890625 1.71875 C 4.890625 1.894531 4.828125 2.035156 4.703125 2.140625 C 4.585938 2.253906 4.445312 2.3125 4.28125 2.3125 Z M 5.25 -8.9375 L 4.15625 -9.84375 L 3.078125 -8.9375 L 2.046875 -8.9375 L 3.625 -10.46875 L 4.703125 -10.46875 L 6.28125 -8.9375 Z M 5.25 -8.9375 "/></g></g></g><g fill="#282327" fill-opacity="1"><g transform="translate(153.097931, 86.513451)"><g/></g></g><g fill="#282327" fill-opacity="1"><g transform="translate(156.272165, 86.513451)"><g><path d="M 2.875 -7.234375 L 0.046875 -7.234375 L 0.046875 -8.265625 L 6.875 -8.265625 L 6.875 -7.234375 L 4.046875 -7.234375 L 4.046875 0 L 2.875 0 Z M 2.875 -7.234375 "/></g></g></g><g fill="#282327" fill-opacity="1"><g transform="translate(163.19883, 86.513451)"><g><path d="M 8.34375 -8.265625 L 8.34375 0 L 7.15625 0 L 7.15625 -3.6875 L 2.421875 -3.6875 L 2.421875 0 L 1.234375 0 L 1.234375 -8.265625 L 2.421875 -8.265625 L 2.421875 -4.703125 L 7.15625 -4.703125 L 7.15625 -8.265625 Z M 8.34375 -8.265625 "/></g></g></g><g fill="#282327" fill-opacity="1"><g transform="translate(172.780513, 86.513451)"><g><path d="M 4.96875 0.09375 C 4.132812 0.09375 3.378906 -0.0859375 2.703125 -0.453125 C 2.035156 -0.816406 1.507812 -1.320312 1.125 -1.96875 C 0.75 -2.613281 0.5625 -3.332031 0.5625 -4.125 C 0.5625 -4.925781 0.75 -5.644531 1.125 -6.28125 C 1.507812 -6.925781 2.035156 -7.429688 2.703125 -7.796875 C 3.378906 -8.171875 4.132812 -8.359375 4.96875 -8.359375 C 5.789062 -8.359375 6.535156 -8.171875 7.203125 -7.796875 C 7.867188 -7.429688 8.390625 -6.925781 8.765625 -6.28125 C 9.148438 -5.644531 9.34375 -4.925781 9.34375 -4.125 C 9.34375 -3.320312 9.148438 -2.597656 8.765625 -1.953125 C 8.390625 -1.316406 7.867188 -0.816406 7.203125 -0.453125 C 6.535156 -0.0859375 5.789062 0.09375 4.96875 0.09375 Z M 4.96875 -0.953125 C 5.570312 -0.953125 6.113281 -1.085938 6.59375 -1.359375 C 7.082031 -1.640625 7.460938 -2.019531 7.734375 -2.5 C 8.015625 -2.988281 8.15625 -3.53125 8.15625 -4.125 C 8.15625 -4.726562 8.015625 -5.269531 7.734375 -5.75 C 7.460938 -6.226562 7.082031 -6.601562 6.59375 -6.875 C 6.113281 -7.15625 5.570312 -7.296875 4.96875 -7.296875 C 4.363281 -7.296875 3.8125 -7.15625 3.3125 -6.875 C 2.820312 -6.601562 2.4375 -6.226562 2.15625 -5.75 C 1.882812 -5.269531 1.75 -4.726562 1.75 -4.125 C 1.75 -3.53125 1.882812 -2.988281 2.15625 -2.5 C 2.4375 -2.019531 2.820312 -1.640625 3.3125 -1.359375 C 3.8125 -1.085938 4.363281 -0.953125 4.96875 -0.953125 Z M 6.03125 -8.921875 L 4.953125 -9.59375 L 3.890625 -8.921875 L 2.84375 -8.921875 L 4.4375 -10.109375 L 5.484375 -10.109375 L 7.078125 -8.921875 Z M 7.515625 -11.3125 L 8.8125 -11.3125 L 7.0625 -9.96875 L 6.125 -9.96875 Z M 7.515625 -11.3125 "/></g></g></g><g fill="#282327" fill-opacity="1"><g transform="translate(182.69261, 86.513451)"><g><path d="M 8.34375 -8.265625 L 8.34375 0 L 7.375 0 L 2.421875 -6.15625 L 2.421875 0 L 1.234375 0 L 1.234375 -8.265625 L 2.203125 -8.265625 L 7.15625 -2.09375 L 7.15625 -8.265625 Z M 8.34375 -8.265625 "/></g></g></g><g fill="#282327" fill-opacity="1"><g transform="translate(192.274293, 86.513451)"><g><path d="M 6.953125 -4.171875 L 8.09375 -4.171875 L 8.09375 -0.953125 C 7.6875 -0.617188 7.207031 -0.359375 6.65625 -0.171875 C 6.113281 0.00390625 5.550781 0.09375 4.96875 0.09375 C 4.132812 0.09375 3.378906 -0.0859375 2.703125 -0.453125 C 2.035156 -0.816406 1.507812 -1.316406 1.125 -1.953125 C 0.75 -2.597656 0.5625 -3.320312 0.5625 -4.125 C 0.5625 -4.925781 0.75 -5.648438 1.125 -6.296875 C 1.507812 -6.941406 2.039062 -7.445312 2.71875 -7.8125 C 3.394531 -8.175781 4.148438 -8.359375 4.984375 -8.359375 C 5.648438 -8.359375 6.25 -8.25 6.78125 -8.03125 C 7.320312 -7.8125 7.78125 -7.492188 8.15625 -7.078125 L 7.4375 -6.34375 C 6.769531 -6.976562 5.96875 -7.296875 5.03125 -7.296875 C 4.40625 -7.296875 3.84375 -7.160156 3.34375 -6.890625 C 2.84375 -6.617188 2.453125 -6.238281 2.171875 -5.75 C 1.890625 -5.269531 1.75 -4.726562 1.75 -4.125 C 1.75 -3.53125 1.890625 -2.988281 2.171875 -2.5 C 2.453125 -2.019531 2.84375 -1.640625 3.34375 -1.359375 C 3.84375 -1.085938 4.40625 -0.953125 5.03125 -0.953125 C 5.769531 -0.953125 6.410156 -1.128906 6.953125 -1.484375 Z M 6.953125 -4.171875 "/></g></g></g><g fill="#282327" fill-opacity="1"><g transform="translate(201.38398, 86.513451)"><g/></g></g><g fill="#282327" fill-opacity="1"><g transform="translate(204.558213, 86.513451)"><g><path d="M 6.953125 -4.171875 L 8.09375 -4.171875 L 8.09375 -0.953125 C 7.6875 -0.617188 7.207031 -0.359375 6.65625 -0.171875 C 6.113281 0.00390625 5.550781 0.09375 4.96875 0.09375 C 4.132812 0.09375 3.378906 -0.0859375 2.703125 -0.453125 C 2.035156 -0.816406 1.507812 -1.316406 1.125 -1.953125 C 0.75 -2.597656 0.5625 -3.320312 0.5625 -4.125 C 0.5625 -4.925781 0.75 -5.648438 1.125 -6.296875 C 1.507812 -6.941406 2.039062 -7.445312 2.71875 -7.8125 C 3.394531 -8.175781 4.148438 -8.359375 4.984375 -8.359375 C 5.648438 -8.359375 6.25 -8.25 6.78125 -8.03125 C 7.320312 -7.8125 7.78125 -7.492188 8.15625 -7.078125 L 7.4375 -6.34375 C 6.769531 -6.976562 5.96875 -7.296875 5.03125 -7.296875 C 4.40625 -7.296875 3.84375 -7.160156 3.34375 -6.890625 C 2.84375 -6.617188 2.453125 -6.238281 2.171875 -5.75 C 1.890625 -5.269531 1.75 -4.726562 1.75 -4.125 C 1.75 -3.53125 1.890625 -2.988281 2.171875 -2.5 C 2.453125 -2.019531 2.84375 -1.640625 3.34375 -1.359375 C 3.84375 -1.085938 4.40625 -0.953125 5.03125 -0.953125 C 5.769531 -0.953125 6.410156 -1.128906 6.953125 -1.484375 Z M 6.953125 -4.171875 "/></g></g></g><g fill="#282327" fill-opacity="1"><g transform="translate(213.667899, 86.513451)"><g><path d="M 1.234375 -8.265625 L 2.421875 -8.265625 L 2.421875 0 L 1.234375 0 Z M 1.234375 -8.265625 "/></g></g></g><g fill="#282327" fill-opacity="1"><g transform="translate(217.325938, 86.513451)"><g><path d="M 6.5 -2.0625 L 2.109375 -2.0625 L 1.203125 0 L -0.015625 0 L 3.734375 -8.265625 L 4.890625 -8.265625 L 8.640625 0 L 7.40625 0 Z M 6.09375 -3.015625 L 4.3125 -7.046875 L 2.53125 -3.015625 Z M 6.09375 -3.015625 "/></g></g></g><g fill="#282327" fill-opacity="1"><g transform="translate(225.963612, 86.513451)"><g><path d="M 4.96875 0.09375 C 4.132812 0.09375 3.378906 -0.0859375 2.703125 -0.453125 C 2.035156 -0.816406 1.507812 -1.320312 1.125 -1.96875 C 0.75 -2.613281 0.5625 -3.332031 0.5625 -4.125 C 0.5625 -4.925781 0.75 -5.644531 1.125 -6.28125 C 1.507812 -6.925781 2.035156 -7.429688 2.703125 -7.796875 C 3.378906 -8.171875 4.132812 -8.359375 4.96875 -8.359375 C 5.789062 -8.359375 6.535156 -8.171875 7.203125 -7.796875 C 7.867188 -7.429688 8.390625 -6.925781 8.765625 -6.28125 C 9.148438 -5.644531 9.34375 -4.925781 9.34375 -4.125 C 9.34375 -3.320312 9.148438 -2.597656 8.765625 -1.953125 C 8.390625 -1.316406 7.867188 -0.816406 7.203125 -0.453125 C 6.535156 -0.0859375 5.789062 0.09375 4.96875 0.09375 Z M 4.96875 -0.953125 C 5.570312 -0.953125 6.113281 -1.085938 6.59375 -1.359375 C 7.082031 -1.640625 7.460938 -2.019531 7.734375 -2.5 C 8.015625 -2.988281 8.15625 -3.53125 8.15625 -4.125 C 8.15625 -4.726562 8.015625 -5.269531 7.734375 -5.75 C 7.460938 -6.226562 7.082031 -6.601562 6.59375 -6.875 C 6.113281 -7.15625 5.570312 -7.296875 4.96875 -7.296875 C 4.363281 -7.296875 3.8125 -7.15625 3.3125 -6.875 C 2.820312 -6.601562 2.4375 -6.226562 2.15625 -5.75 C 1.882812 -5.269531 1.75 -4.726562 1.75 -4.125 C 1.75 -3.53125 1.882812 -2.988281 2.15625 -2.5 C 2.4375 -2.019531 2.820312 -1.640625 3.3125 -1.359375 C 3.8125 -1.085938 4.363281 -0.953125 4.96875 -0.953125 Z M 4.96875 -0.953125 "/></g></g></g><g fill="#282327" fill-opacity="1"><g transform="translate(235.875709, 86.513451)"><g/></g></g><g fill="#282327" fill-opacity="1"><g transform="translate(239.049943, 86.513451)"><g><path d="M 1.234375 -8.265625 L 4.71875 -8.265625 C 5.59375 -8.265625 6.367188 -8.085938 7.046875 -7.734375 C 7.722656 -7.390625 8.242188 -6.90625 8.609375 -6.28125 C 8.984375 -5.65625 9.171875 -4.9375 9.171875 -4.125 C 9.171875 -3.3125 8.984375 -2.59375 8.609375 -1.96875 C 8.242188 -1.34375 7.722656 -0.859375 7.046875 -0.515625 C 6.367188 -0.171875 5.59375 0 4.71875 0 L 1.234375 0 Z M 4.640625 -1.03125 C 5.316406 -1.03125 5.90625 -1.160156 6.40625 -1.421875 C 6.914062 -1.679688 7.304688 -2.039062 7.578125 -2.5 C 7.859375 -2.96875 8 -3.507812 8 -4.125 C 8 -4.738281 7.859375 -5.28125 7.578125 -5.75 C 7.304688 -6.21875 6.914062 -6.582031 6.40625 -6.84375 C 5.90625 -7.101562 5.316406 -7.234375 4.640625 -7.234375 L 2.421875 -7.234375 L 2.421875 -1.03125 Z M 4.640625 -1.03125 "/></g></g></g><g fill="#282327" fill-opacity="1"><g transform="translate(248.796825, 86.513451)"><g><path d="M 1.234375 -8.265625 L 2.421875 -8.265625 L 2.421875 0 L 1.234375 0 Z M 1.828125 2.3125 C 1.671875 2.3125 1.53125 2.253906 1.40625 2.140625 C 1.289062 2.035156 1.234375 1.894531 1.234375 1.71875 C 1.234375 1.550781 1.289062 1.40625 1.40625 1.28125 C 1.53125 1.164062 1.671875 1.109375 1.828125 1.109375 C 1.992188 1.109375 2.132812 1.164062 2.25 1.28125 C 2.375 1.40625 2.4375 1.550781 2.4375 1.71875 C 2.4375 1.894531 2.375 2.035156 2.25 2.140625 C 2.132812 2.253906 1.992188 2.3125 1.828125 2.3125 Z M 1.828125 2.3125 "/></g></g></g><g fill="#282327" fill-opacity="1"><g transform="translate(252.454864, 86.513451)"><g><path d="M 4.9375 0.09375 C 4.101562 0.09375 3.351562 -0.0859375 2.6875 -0.453125 C 2.03125 -0.816406 1.507812 -1.316406 1.125 -1.953125 C 0.75 -2.597656 0.5625 -3.320312 0.5625 -4.125 C 0.5625 -4.925781 0.75 -5.644531 1.125 -6.28125 C 1.507812 -6.925781 2.035156 -7.429688 2.703125 -7.796875 C 3.367188 -8.171875 4.113281 -8.359375 4.9375 -8.359375 C 5.582031 -8.359375 6.171875 -8.25 6.703125 -8.03125 C 7.242188 -7.8125 7.703125 -7.488281 8.078125 -7.0625 L 7.3125 -6.328125 C 6.6875 -6.972656 5.910156 -7.296875 4.984375 -7.296875 C 4.367188 -7.296875 3.8125 -7.15625 3.3125 -6.875 C 2.820312 -6.601562 2.4375 -6.226562 2.15625 -5.75 C 1.882812 -5.269531 1.75 -4.726562 1.75 -4.125 C 1.75 -3.53125 1.882812 -2.988281 2.15625 -2.5 C 2.4375 -2.019531 2.820312 -1.640625 3.3125 -1.359375 C 3.8125 -1.085938 4.367188 -0.953125 4.984375 -0.953125 C 5.910156 -0.953125 6.6875 -1.285156 7.3125 -1.953125 L 8.078125 -1.203125 C 7.703125 -0.773438 7.242188 -0.453125 6.703125 -0.234375 C 6.171875 -0.015625 5.582031 0.09375 4.9375 0.09375 Z M 4.9375 0.09375 "/></g></g></g><g fill="#282327" fill-opacity="1"><g transform="translate(260.986337, 86.513451)"><g><path d="M 8.34375 -8.265625 L 8.34375 0 L 7.15625 0 L 7.15625 -3.6875 L 2.421875 -3.6875 L 2.421875 0 L 1.234375 0 L 1.234375 -8.265625 L 2.421875 -8.265625 L 2.421875 -4.703125 L 7.15625 -4.703125 L 7.15625 -8.265625 Z M 8.34375 -8.265625 "/></g></g></g><g fill="#282327" fill-opacity="1"><g transform="translate(270.56802, 86.513451)"><g/></g></g><g fill="#282327" fill-opacity="1"><g transform="translate(273.742253, 86.513451)"><g><path d="M 2.875 -7.234375 L 0.046875 -7.234375 L 0.046875 -8.265625 L 6.875 -8.265625 L 6.875 -7.234375 L 4.046875 -7.234375 L 4.046875 0 L 2.875 0 Z M 2.875 -7.234375 "/></g></g></g><g fill="#282327" fill-opacity="1"><g transform="translate(280.668918, 86.513451)"><g><path d="M 6.765625 0 L 4.984375 -2.53125 C 4.753906 -2.519531 4.578125 -2.515625 4.453125 -2.515625 L 2.421875 -2.515625 L 2.421875 0 L 1.234375 0 L 1.234375 -8.265625 L 4.453125 -8.265625 C 5.523438 -8.265625 6.367188 -8.003906 6.984375 -7.484375 C 7.597656 -6.972656 7.90625 -6.269531 7.90625 -5.375 C 7.90625 -4.738281 7.742188 -4.195312 7.421875 -3.75 C 7.109375 -3.300781 6.664062 -2.972656 6.09375 -2.765625 L 8.046875 0 Z M 4.421875 -3.515625 C 5.171875 -3.515625 5.738281 -3.675781 6.125 -4 C 6.519531 -4.320312 6.71875 -4.78125 6.71875 -5.375 C 6.71875 -5.976562 6.519531 -6.4375 6.125 -6.75 C 5.738281 -7.070312 5.171875 -7.234375 4.421875 -7.234375 L 2.421875 -7.234375 L 2.421875 -3.515625 Z M 4.421875 -3.515625 "/></g></g></g><g fill="#282327" fill-opacity="1"><g transform="translate(289.247595, 86.513451)"><g><path d="M 4.65625 0.09375 C 3.5625 0.09375 2.707031 -0.21875 2.09375 -0.84375 C 1.476562 -1.476562 1.171875 -2.382812 1.171875 -3.5625 L 1.171875 -8.265625 L 2.34375 -8.265625 L 2.34375 -3.609375 C 2.34375 -1.835938 3.117188 -0.953125 4.671875 -0.953125 C 5.421875 -0.953125 5.992188 -1.171875 6.390625 -1.609375 C 6.796875 -2.046875 7 -2.710938 7 -3.609375 L 7 -8.265625 L 8.15625 -8.265625 L 8.15625 -3.5625 C 8.15625 -2.375 7.847656 -1.46875 7.234375 -0.84375 C 6.617188 -0.21875 5.757812 0.09375 4.65625 0.09375 Z M 4.65625 0.09375 "/></g></g></g><g fill="#282327" fill-opacity="1"><g transform="translate(298.581479, 86.513451)"><g><path d="M 8.34375 -8.265625 L 8.34375 0 L 7.375 0 L 2.421875 -6.15625 L 2.421875 0 L 1.234375 0 L 1.234375 -8.265625 L 2.203125 -8.265625 L 7.15625 -2.09375 L 7.15625 -8.265625 Z M 8.34375 -8.265625 "/></g></g></g><g fill="#282327" fill-opacity="1"><g transform="translate(308.163162, 86.513451)"><g><path d="M 6.953125 -4.171875 L 8.09375 -4.171875 L 8.09375 -0.953125 C 7.6875 -0.617188 7.207031 -0.359375 6.65625 -0.171875 C 6.113281 0.00390625 5.550781 0.09375 4.96875 0.09375 C 4.132812 0.09375 3.378906 -0.0859375 2.703125 -0.453125 C 2.035156 -0.816406 1.507812 -1.316406 1.125 -1.953125 C 0.75 -2.597656 0.5625 -3.320312 0.5625 -4.125 C 0.5625 -4.925781 0.75 -5.648438 1.125 -6.296875 C 1.507812 -6.941406 2.039062 -7.445312 2.71875 -7.8125 C 3.394531 -8.175781 4.148438 -8.359375 4.984375 -8.359375 C 5.648438 -8.359375 6.25 -8.25 6.78125 -8.03125 C 7.320312 -7.8125 7.78125 -7.492188 8.15625 -7.078125 L 7.4375 -6.34375 C 6.769531 -6.976562 5.96875 -7.296875 5.03125 -7.296875 C 4.40625 -7.296875 3.84375 -7.160156 3.34375 -6.890625 C 2.84375 -6.617188 2.453125 -6.238281 2.171875 -5.75 C 1.890625 -5.269531 1.75 -4.726562 1.75 -4.125 C 1.75 -3.53125 1.890625 -2.988281 2.171875 -2.5 C 2.453125 -2.019531 2.84375 -1.640625 3.34375 -1.359375 C 3.84375 -1.085938 4.40625 -0.953125 5.03125 -0.953125 C 5.769531 -0.953125 6.410156 -1.128906 6.953125 -1.484375 Z M 6.953125 -4.171875 "/></g></g></g><g fill="#282327" fill-opacity="1"><g transform="translate(317.272848, 86.513451)"><g/></g></g><g fill="#282327" fill-opacity="1"><g transform="translate(320.447081, 86.513451)"><g><path d="M 8.40625 -8.265625 L 4.796875 0 L 3.625 0 L -0.015625 -8.265625 L 1.265625 -8.265625 L 4.234375 -1.46875 L 7.234375 -8.265625 Z M 8.40625 -8.265625 "/></g></g></g><g fill="#282327" fill-opacity="1"><g transform="translate(328.848765, 86.513451)"><g><path d="M 1.234375 -8.265625 L 2.421875 -8.265625 L 2.421875 0 L 1.234375 0 Z M 1.234375 -8.265625 "/></g></g></g><g fill="#282327" fill-opacity="1"><g transform="translate(332.506804, 86.513451)"><g><path d="M 7.234375 -1.03125 L 7.234375 0 L 1.234375 0 L 1.234375 -8.265625 L 7.0625 -8.265625 L 7.0625 -7.234375 L 2.421875 -7.234375 L 2.421875 -4.6875 L 6.5625 -4.6875 L 6.5625 -3.6875 L 2.421875 -3.6875 L 2.421875 -1.03125 Z M 4.28125 2.3125 C 4.125 2.3125 3.984375 2.253906 3.859375 2.140625 C 3.742188 2.035156 3.6875 1.894531 3.6875 1.71875 C 3.6875 1.550781 3.742188 1.40625 3.859375 1.28125 C 3.984375 1.164062 4.125 1.109375 4.28125 1.109375 C 4.445312 1.109375 4.585938 1.164062 4.703125 1.28125 C 4.828125 1.40625 4.890625 1.550781 4.890625 1.71875 C 4.890625 1.894531 4.828125 2.035156 4.703125 2.140625 C 4.585938 2.253906 4.445312 2.3125 4.28125 2.3125 Z M 5.25 -8.9375 L 4.15625 -9.84375 L 3.078125 -8.9375 L 2.046875 -8.9375 L 3.625 -10.46875 L 4.703125 -10.46875 L 6.28125 -8.9375 Z M 5.25 -8.9375 "/></g></g></g><g fill="#282327" fill-opacity="1"><g transform="translate(340.412873, 86.513451)"><g><path d="M 2.875 -7.234375 L 0.046875 -7.234375 L 0.046875 -8.265625 L 6.875 -8.265625 L 6.875 -7.234375 L 4.046875 -7.234375 L 4.046875 0 L 2.875 0 Z M 2.875 -7.234375 "/></g></g></g><g fill="#282327" fill-opacity="1"><g transform="translate(130.172696, 52.657571)"><g><path d="M 17.296875 -16.796875 L 17.296875 0.6875 L 17.203125 0.6875 L 5.453125 -9.921875 L 5.515625 0 L 2.171875 0 L 2.171875 -17.453125 L 2.296875 -17.453125 L 14.03125 -6.6875 L 13.96875 -16.796875 Z M 17.296875 -16.796875 "/></g></g></g><g fill="#282327" fill-opacity="1"><g transform="translate(155.674398, 52.657571)"><g><path d="M 10.46875 -3.28125 L 4.90625 -3.28125 L 3.53125 0 L 0.28125 0 L 7.84375 -17.453125 L 8.03125 -17.453125 L 15.609375 0 L 11.765625 0 Z M 9.375 -6.0625 L 7.75 -10.15625 L 6.0625 -6.0625 Z M 9.375 -6.0625 "/></g></g></g><g fill="#282327" fill-opacity="1"><g transform="translate(177.595226, 52.657571)"><g><path d="M 12.34375 -16.796875 L 12.34375 -13.59375 L 8.265625 -13.59375 L 8.265625 0 L 4.953125 0 L 4.953125 -13.59375 L 1.03125 -13.59375 L 1.03125 -16.796875 Z M 12.34375 -16.796875 "/></g></g></g><g fill="#282327" fill-opacity="1"><g transform="translate(197.007161, 52.657571)"><g><path d="M 13.625 -16.796875 L 13.625 -13.59375 L 5.46875 -13.59375 L 5.46875 -10.015625 L 12.6875 -10.015625 L 12.6875 -6.828125 L 5.46875 -6.828125 L 5.46875 -3.1875 L 13.9375 -3.1875 L 13.9375 0 L 2.171875 0 L 2.171875 -16.796875 Z M 13.625 -16.796875 "/></g></g></g><g fill="#282327" fill-opacity="1"><g transform="translate(218.243746, 52.657571)"><g><path d="M 12.15625 -3.1875 L 12.15625 0 L 1.234375 0 C 2.054688 -0.820312 2.46875 -1.234375 2.46875 -1.234375 C 3.894531 -2.691406 5 -3.859375 5.78125 -4.734375 C 6.5625 -5.617188 7.210938 -6.515625 7.734375 -7.421875 C 8.265625 -8.328125 8.53125 -9.191406 8.53125 -10.015625 C 8.53125 -10.648438 8.316406 -11.15625 7.890625 -11.53125 C 7.460938 -11.914062 6.898438 -12.109375 6.203125 -12.109375 C 5.535156 -12.109375 5.003906 -11.929688 4.609375 -11.578125 C 4.210938 -11.234375 4.015625 -10.84375 4.015625 -10.40625 C 4.015625 -9.507812 4.3125 -8.75 4.90625 -8.125 L 2.875 -6.28125 C 2.46875 -6.46875 2.101562 -6.804688 1.78125 -7.296875 C 1.457031 -7.785156 1.210938 -8.3125 1.046875 -8.875 C 0.878906 -9.4375 0.796875 -9.914062 0.796875 -10.3125 C 0.796875 -11.164062 1.03125 -11.972656 1.5 -12.734375 C 1.976562 -13.503906 2.664062 -14.125 3.5625 -14.59375 C 4.46875 -15.070312 5.539062 -15.3125 6.78125 -15.3125 C 7.78125 -15.3125 8.675781 -15.078125 9.46875 -14.609375 C 10.257812 -14.148438 10.875 -13.53125 11.3125 -12.75 C 11.757812 -11.976562 11.984375 -11.15625 11.984375 -10.28125 C 11.984375 -9.476562 11.828125 -8.6875 11.515625 -7.90625 C 11.203125 -7.132812 10.804688 -6.398438 10.328125 -5.703125 C 9.847656 -5.015625 9.210938 -4.175781 8.421875 -3.1875 Z M 12.15625 -3.1875 "/></g></g></g><g fill="#282327" fill-opacity="1"><g transform="translate(237.587258, 52.657571)"><g><path d="M 11.703125 -5.8125 L 11.703125 -3.3125 L 9.90625 -3.3125 L 9.90625 0 L 6.5625 0 L 6.5625 -3.3125 L 0.234375 -3.3125 L 0.234375 -3.328125 L 9.875 -15.3125 L 9.90625 -15.3125 L 9.90625 -5.8125 Z M 6.5625 -5.8125 L 6.5625 -7.828125 L 5.0625 -5.8125 Z M 6.5625 -5.8125 "/></g></g></g><g fill="#282327" fill-opacity="1"><g transform="translate(256.246527, 52.657571)"><g><path d="M 11.125 -15.125 L 5.5 0 L 1.796875 0 L 6.34375 -11.9375 L 0.90625 -11.9375 L 0.90625 -15.125 Z M 11.125 -15.125 "/></g></g></g><g fill="#282327" fill-opacity="1"><g transform="translate(273.765388, 52.657571)"><g><path d="M 0.34375 -1.640625 C 0.34375 -2.097656 0.507812 -2.488281 0.84375 -2.8125 C 1.175781 -3.144531 1.554688 -3.3125 1.984375 -3.3125 C 2.378906 -3.3125 2.742188 -3.144531 3.078125 -2.8125 C 3.410156 -2.488281 3.578125 -2.097656 3.578125 -1.640625 C 3.578125 -1.171875 3.410156 -0.78125 3.078125 -0.46875 C 2.753906 -0.15625 2.390625 0 1.984375 0 C 1.554688 0 1.175781 -0.148438 0.84375 -0.453125 C 0.507812 -0.753906 0.34375 -1.148438 0.34375 -1.640625 Z M 0.34375 -1.640625 "/></g></g></g><g fill="#282327" fill-opacity="1"><g transform="translate(283.734763, 52.657571)"><g><path d="M 14.765625 -1.390625 C 14.335938 -1.035156 13.660156 -0.679688 12.734375 -0.328125 C 11.804688 0.015625 10.796875 0.1875 9.703125 0.1875 C 7.953125 0.1875 6.425781 -0.191406 5.125 -0.953125 C 3.832031 -1.710938 2.84375 -2.734375 2.15625 -4.015625 C 1.476562 -5.304688 1.140625 -6.722656 1.140625 -8.265625 C 1.140625 -9.953125 1.476562 -11.457031 2.15625 -12.78125 C 2.84375 -14.101562 3.800781 -15.128906 5.03125 -15.859375 C 6.269531 -16.597656 7.695312 -16.96875 9.3125 -16.96875 C 10.332031 -16.96875 11.273438 -16.832031 12.140625 -16.5625 C 13.003906 -16.289062 13.765625 -15.945312 14.421875 -15.53125 L 13.125 -12.40625 C 11.914062 -13.320312 10.679688 -13.78125 9.421875 -13.78125 C 8.566406 -13.78125 7.765625 -13.539062 7.015625 -13.0625 C 6.273438 -12.59375 5.679688 -11.953125 5.234375 -11.140625 C 4.796875 -10.328125 4.578125 -9.425781 4.578125 -8.4375 C 4.578125 -7.363281 4.78125 -6.414062 5.1875 -5.59375 C 5.601562 -4.78125 6.191406 -4.144531 6.953125 -3.6875 C 7.710938 -3.238281 8.601562 -3.015625 9.625 -3.015625 C 10.445312 -3.015625 11.1875 -3.144531 11.84375 -3.40625 C 12.5 -3.675781 13.015625 -3.992188 13.390625 -4.359375 Z M 14.765625 -1.390625 "/></g></g></g><g fill="#282327" fill-opacity="1"><g transform="translate(305.678401, 52.657571)"><g><path d="M 1.140625 -8.375 C 1.140625 -9.894531 1.519531 -11.316406 2.28125 -12.640625 C 3.050781 -13.960938 4.09375 -15.015625 5.40625 -15.796875 C 6.726562 -16.578125 8.160156 -16.96875 9.703125 -16.96875 C 11.234375 -16.96875 12.65625 -16.578125 13.96875 -15.796875 C 15.289062 -15.015625 16.34375 -13.960938 17.125 -12.640625 C 17.90625 -11.316406 18.296875 -9.894531 18.296875 -8.375 C 18.296875 -6.820312 17.90625 -5.390625 17.125 -4.078125 C 16.34375 -2.773438 15.289062 -1.738281 13.96875 -0.96875 C 12.65625 -0.195312 11.234375 0.1875 9.703125 0.1875 C 8.148438 0.1875 6.71875 -0.195312 5.40625 -0.96875 C 4.09375 -1.738281 3.050781 -2.773438 2.28125 -4.078125 C 1.519531 -5.390625 1.140625 -6.820312 1.140625 -8.375 Z M 4.5625 -8.375 C 4.5625 -7.394531 4.789062 -6.492188 5.25 -5.671875 C 5.71875 -4.859375 6.347656 -4.210938 7.140625 -3.734375 C 7.941406 -3.253906 8.832031 -3.015625 9.8125 -3.015625 C 10.75 -3.015625 11.601562 -3.253906 12.375 -3.734375 C 13.15625 -4.210938 13.765625 -4.859375 14.203125 -5.671875 C 14.648438 -6.484375 14.875 -7.382812 14.875 -8.375 C 14.875 -9.375 14.644531 -10.285156 14.1875 -11.109375 C 13.726562 -11.929688 13.109375 -12.582031 12.328125 -13.0625 C 11.546875 -13.539062 10.675781 -13.78125 9.71875 -13.78125 C 8.757812 -13.78125 7.890625 -13.539062 7.109375 -13.0625 C 6.328125 -12.582031 5.707031 -11.929688 5.25 -11.109375 C 4.789062 -10.285156 4.5625 -9.375 4.5625 -8.375 Z M 4.5625 -8.375 "/></g></g></g><g fill="#282327" fill-opacity="1"><g transform="translate(331.157303, 52.657571)"><g><path d="M 19.453125 -17.46875 L 19.453125 0 L 16.15625 0 L 16.15625 -8 L 10.671875 -0.234375 L 10.625 -0.234375 L 5.359375 -7.5 L 5.359375 0 L 2.171875 0 L 2.171875 -17.46875 L 2.1875 -17.46875 L 10.703125 -5.40625 L 19.40625 -17.46875 Z M 19.453125 -17.46875 "/></g></g></g></svg>